<?xml version="1.0" encoding="UTF-8" standalone="no"?>
<svg
   version="1.0"
   width="106.75614"
   height="32"
   viewBox="0 0 106.75614 32"
   preserveAspectRatio="xMidYMid"
   id="svg17"
   sodipodi:docname="logo-bre-b.svg"
   inkscape:version="1.4.3 (0d15f75042, 2025-12-25)"
   xmlns:inkscape="http://www.inkscape.org/namespaces/inkscape"
   xmlns:sodipodi="http://sodipodi.sourceforge.net/DTD/sodipodi-0.dtd"
   xmlns="http://www.w3.org/2000/svg"
   xmlns:svg="http://www.w3.org/2000/svg">
  <defs
     id="defs17" />
  <sodipodi:namedview
     id="namedview17"
     pagecolor="#ffffff"
     bordercolor="#000000"
     borderopacity="0.25"
     inkscape:showpageshadow="2"
     inkscape:pageopacity="0.0"
     inkscape:pagecheckerboard="0"
     inkscape:deskcolor="#d1d1d1"
     inkscape:zoom="1.4325153"
     inkscape:cx="160.55675"
     inkscape:cy="52.35546"
     inkscape:window-width="1366"
     inkscape:window-height="732"
     inkscape:window-x="0"
     inkscape:window-y="0"
     inkscape:window-maximized="1"
     inkscape:current-layer="svg17" />
  <g
     id="g18"
     transform="matrix(0.33526621,0,0,0.33526621,-55.436268,-24.619758)">
    <g
       fill="#09dd71"
       id="g8">
      <path
         d="m 403.42,167.62 c -0.43,-0.67 -0.51,-1.29 -0.27,-2.27 0.31,-1.29 5.96,-20.81 10.81,-37.42 1.65,-5.6 2.12,-7.8 1.96,-8.89 -0.16,-0.78 -1.1,-4.23 -2.16,-7.64 -1.02,-3.41 -3.84,-12.66 -6.23,-20.53 -2.39,-7.88 -4.35,-14.77 -4.35,-15.32 0,-0.51 0.2,-1.14 0.47,-1.41 0.35,-0.35 6.74,-0.47 26.25,-0.47 27.86,0 28.37,0.04 34.52,2.16 9.83,3.37 15.12,11.09 15.16,22.02 0,7.76 -2.27,13.6 -7.48,19.12 -1.76,1.84 -2.94,3.33 -2.59,3.33 1.25,0 6.07,2.82 7.95,4.66 3.57,3.49 5.29,7.33 6.07,13.4 1.61,12.58 -4.94,24.14 -15.87,28.05 -6.07,2.16 -5.02,2.08 -35.5,2.08 h -28.21 l -0.55,-0.86 z m 54.89,-17.2 c 3.06,-1.14 5.72,-3.84 6.54,-6.66 1.41,-4.66 0.31,-9.36 -2.74,-12.07 -3.06,-2.66 -3.76,-2.78 -18.06,-2.78 -12.66,0 -12.7,0 -13.56,0.9 -0.67,0.63 -1.61,3.41 -3.53,10.19 -2.59,9.21 -2.86,10.46 -2.35,10.97 0.12,0.16 7.25,0.27 15.83,0.27 14.97,0 15.71,-0.04 17.87,-0.82 z m -3.21,-38.79 c 2.27,-1.18 4.27,-3.6 4.94,-5.96 0.74,-2.66 0.55,-7.01 -0.43,-9.17 -1.06,-2.39 -2.08,-3.49 -4.51,-4.74 l -1.96,-1.06 -13.75,-0.12 c -17.2,-0.16 -15.87,-0.86 -13.52,7.29 2.59,8.82 3.96,13.13 4.62,14.11 l 0.55,0.9 11.05,-0.12 c 10.97,-0.12 11.05,-0.12 13.01,-1.14 z"
         id="path7" />
      <path
         d="m 380.86,126.17 c -0.71,-0.71 -0.78,-1.29 -0.78,-6.27 0,-4.98 0.08,-5.56 0.78,-6.27 0.74,-0.74 1.29,-0.78 13.13,-0.78 h 12.34 l 0.67,1.06 c 0.59,0.86 0.71,1.92 0.71,5.84 0,4.27 -0.08,4.94 -0.82,5.92 l -0.82,1.1 -12.19,0.12 c -11.79,0.08 -12.23,0.08 -13.01,-0.71 z"
         id="path8" />
    </g>
    <g
       fill="#04bbf1"
       id="g9">
      <path
         d="m 165.82,168.02 c -0.82,-0.82 -0.51,-2.47 2.43,-12.54 6.07,-20.73 10.03,-34.68 10.03,-35.54 0,-0.86 -0.9,-3.92 -8.78,-30.09 -2.27,-7.56 -4.15,-14.11 -4.15,-14.54 0,-0.43 0.24,-0.94 0.51,-1.14 0.71,-0.59 46.2,-1.02 50.98,-0.51 13.75,1.57 21.67,7.21 24.33,17.44 0.94,3.49 0.86,10.58 -0.16,14.34 -1.21,4.7 -2.82,7.44 -6.58,11.36 -1.84,1.92 -3.1,3.49 -2.82,3.49 0.31,0 1.88,0.63 3.45,1.37 5.29,2.55 8.62,6.9 10.31,13.64 0.67,2.66 0.78,3.96 0.59,7.91 -0.31,8.07 -2.51,13.09 -7.95,18.22 -2.59,2.43 -3.76,3.17 -8.15,5.09 -4.31,1.88 -5.25,1.96 -35.3,1.96 -21.47,0 -28.37,-0.12 -28.72,-0.47 z m 54.97,-17.75 c 2.9,-1.29 5.02,-3.33 6.07,-5.76 0.74,-1.72 0.86,-2.55 0.71,-5.21 -0.27,-4.82 -2.19,-7.76 -6.39,-9.68 -1.88,-0.86 -2.39,-0.9 -13.91,-1.02 -6.58,-0.08 -12.54,0 -13.24,0.12 -1.02,0.2 -1.45,0.55 -1.84,1.53 -1.1,2.59 -5.76,19.83 -5.52,20.41 0.2,0.51 2.23,0.59 16.1,0.59 h 15.91 l 2.12,-0.98 z m -4.43,-38.16 c 3.96,-1.53 6.27,-5.17 6.35,-9.99 0.08,-4.04 -0.74,-6.35 -2.94,-8.54 -2.94,-2.94 -3.72,-3.06 -18.96,-3.06 -12.11,0 -13.05,0.04 -13.64,0.71 -0.63,0.67 -0.55,1.14 1.1,6.94 2.82,9.95 4.07,13.79 4.62,14.22 0.59,0.51 6.47,0.74 15.16,0.67 5.25,-0.04 6.39,-0.16 8.31,-0.94 z"
         id="path9" />
    </g>
    <g
       fill="#04cfaa"
       id="g11">
      <path
         d="m 332.86,168.56 c -2.9,-0.31 -8.03,-1.8 -11.05,-3.21 -11.17,-5.21 -17.79,-14.65 -19.71,-28.02 -0.51,-3.6 -0.51,-10.78 0.04,-14.54 0.94,-6.7 3.96,-14.34 7.56,-19.16 3.29,-4.35 10.03,-9.36 13.95,-10.38 0.98,-0.24 2.31,-0.67 2.94,-0.98 1.18,-0.55 3.37,-0.94 9.68,-1.8 6.19,-0.86 13.09,0.35 19.32,3.37 3.6,1.72 7.05,4.27 6.62,4.94 -0.55,0.9 -6.27,0 -6.94,-1.1 -0.43,-0.71 -1.45,-0.16 -1.45,0.82 0,0.47 -0.2,1.06 -0.43,1.29 -0.35,0.35 -0.31,1.29 0.08,3.68 0.39,2.51 0.39,3.29 0.04,3.41 -0.31,0.08 -0.39,0.63 -0.24,1.68 0.24,1.29 -0.35,3.88 -0.86,3.88 -0.08,0 -0.78,-0.71 -1.57,-1.57 -0.78,-0.86 -2.55,-2.12 -3.92,-2.78 l -2.51,-1.25 -5.84,0.2 c -5.45,0.2 -5.96,0.27 -8.31,1.37 -3.64,1.72 -6.35,4.31 -7.95,7.68 -0.78,1.57 -1.49,3.49 -1.65,4.31 l -0.24,1.45 h 17.08 c 16.81,0 17.08,0 17.08,0.78 0,0.74 -0.27,0.78 -9.29,0.78 -5.13,0 -9.72,0.12 -10.19,0.24 -1.14,0.31 -1.14,0.82 -0.08,1.14 0.74,0.24 0.82,0.47 0.59,2.12 -0.16,0.98 -0.39,2.74 -0.51,3.88 -0.12,1.1 -0.35,2.04 -0.55,2.04 -0.2,0 -0.35,0.24 -0.35,0.51 0,0.43 2.12,0.59 10.7,0.78 26.57,0.63 27.78,0.71 27.08,1.53 -0.63,0.67 -1.88,0.71 -25.63,0.71 -28.13,0 -26.41,-0.2 -25.47,2.86 2.66,8.93 9.52,13.52 19.71,13.13 3.68,-0.16 3.8,-0.12 3.8,0.71 0,0.78 -0.24,0.82 -4.19,1.06 -2.35,0.16 -4.9,0.35 -5.76,0.51 l -1.49,0.27 1.25,0.55 1.29,0.51 -0.27,2.27 c -0.35,3.13 -0.98,5.17 -1.53,5.17 -0.27,0 -0.67,0.43 -0.94,0.98 -0.24,0.55 -0.27,0.98 -0.08,0.98 0.2,0 0.35,0.27 0.35,0.59 0,0.27 0.27,0.71 0.63,0.9 0.35,0.2 0.55,0.67 0.47,1.1 -0.08,0.59 -0.39,0.71 -1.29,0.63 z"
         id="path10" />
      <path
         d="m 292.69,110.34 c 0,-0.82 0.24,-1.41 0.59,-1.57 0.31,-0.12 0.59,-0.55 0.59,-0.98 0,-0.39 0.27,-0.82 0.59,-0.98 0.35,-0.12 0.59,-0.74 0.59,-1.61 0,-0.74 0.16,-1.37 0.35,-1.37 0.2,0 0.47,-0.43 0.59,-0.98 0.12,-0.51 0.78,-1.57 1.41,-2.31 0.67,-0.71 1.18,-1.68 1.18,-2.16 0,-0.43 0.2,-0.82 0.43,-0.82 0.24,0 0.16,-0.27 -0.16,-0.59 -0.35,-0.31 -0.67,-0.74 -0.74,-0.98 -0.08,-0.24 -1.06,-0.51 -2.19,-0.67 -1.8,-0.2 -2.04,-0.31 -2.04,-1.14 0,-0.59 -0.24,-0.94 -0.59,-0.94 -0.43,0 -0.59,-0.43 -0.59,-1.41 v -1.41 l 5.8,0.16 c 7.05,0.16 7.29,0.27 7.05,3.37 -0.16,1.61 -0.94,3.6 -3.6,9.01 -1.88,3.8 -3.8,7.33 -4.27,7.84 -0.63,0.67 -1.21,0.86 -2.9,0.86 h -2.08 v -1.33 z"
         id="path11" />
    </g>
    <g
       fill="#03c6cf"
       id="g13">
      <path
         d="m 254.1,167.7 c -0.63,-0.71 -0.67,-2.9 -0.63,-38.28 0.04,-32.99 0.12,-37.58 0.63,-38.12 0.9,-0.86 15.71,-1.1 16.85,-0.27 0.71,0.55 0.78,1.18 0.98,7.37 l 0.2,6.78 1.65,-3.37 c 2.35,-4.66 4.51,-6.97 8.46,-8.89 4.07,-2 6.66,-2.39 14.77,-2.31 l 6.47,0.08 -4.7,0.24 c -2.59,0.12 -4.51,0.27 -4.31,0.31 0.24,0.04 0.12,0.27 -0.2,0.47 -0.51,0.31 -0.47,0.39 0.12,0.39 0.43,0 0.67,0.31 0.67,0.94 0,0.9 0.12,0.94 1.37,0.74 0.9,-0.16 1.37,-0.08 1.37,0.24 0,0.24 0.35,0.43 0.78,0.43 0.43,0 0.78,0.2 0.78,0.43 0,0.2 0.16,0.31 0.35,0.16 0.2,-0.12 0.47,-0.04 0.63,0.2 0.12,0.2 0,0.39 -0.27,0.43 -0.27,0 -0.12,0.2 0.39,0.43 0.47,0.24 0.86,0.55 0.86,0.71 0,0.63 -1.06,2.31 -1.29,2.08 -0.16,-0.12 -0.27,0.16 -0.27,0.67 0,0.47 -0.51,1.49 -1.18,2.19 -0.63,0.74 -1.29,1.8 -1.41,2.31 -0.12,0.55 -0.43,0.98 -0.63,0.98 -0.24,0 -0.2,0.24 0.08,0.59 0.39,0.47 0.35,0.78 -0.16,1.57 -0.35,0.55 -0.82,0.98 -1.02,0.98 -0.24,0 -0.39,0.2 -0.39,0.43 0,0.2 0.2,0.27 0.43,0.12 0.27,-0.16 0.39,0 0.27,0.43 -0.04,0.39 -0.43,0.74 -0.82,0.82 -1.45,0.2 -1.18,0.55 0.43,0.55 0.86,0 1.72,-0.16 1.84,-0.39 0.12,-0.2 0.59,-0.59 1.06,-0.82 0.94,-0.51 0.71,0.04 -0.59,1.53 -0.74,0.82 -1.14,0.86 -5.6,0.86 -11.4,0 -16.46,2.08 -19.12,7.8 -0.78,1.76 -0.82,2.47 -1.02,24.76 -0.16,18.65 -0.31,23.08 -0.74,23.59 -0.47,0.59 -1.57,0.67 -8.46,0.67 -7.37,0 -7.95,-0.04 -8.62,-0.78 z"
         id="path12" />
      <path
         d="m 299.55,106.46 c 0.12,-1.21 1.76,-4.78 2.9,-6.35 0.71,-0.94 2.39,-5.45 2.39,-6.31 0,-0.55 -0.2,-1.33 -0.43,-1.8 -0.55,-0.98 -0.16,-1.37 0.67,-0.67 0.47,0.39 0.59,1.02 0.47,2.59 -0.16,1.61 -0.86,3.49 -3.17,8.07 -2.31,4.66 -2.94,5.64 -2.82,4.47 z"
         id="path13" />
    </g>
    <g
       fill="#04d399"
       id="g17">
      <path
         d="m 332.97,168.25 c -0.63,-0.31 -1.1,-0.82 -1.1,-1.14 0,-0.35 -0.24,-0.47 -0.67,-0.31 -0.47,0.2 -0.59,0.08 -0.39,-0.39 0.12,-0.35 0.08,-0.67 -0.12,-0.67 -0.47,0 -0.08,-1.14 0.67,-2.04 0.31,-0.35 0.47,-0.86 0.31,-1.06 -0.16,-0.27 0.12,-0.43 0.67,-0.43 0.71,0 0.78,-0.08 0.31,-0.39 -0.55,-0.35 -0.27,-0.55 0.51,-0.43 0.16,0.04 0.12,-0.27 -0.12,-0.71 -0.2,-0.43 -0.39,-1.1 -0.39,-1.49 0.04,-0.67 0.04,-0.67 0.55,0 0.51,0.67 0.55,0.63 0.47,-0.27 0,-0.59 -0.2,-1.02 -0.43,-1.06 -0.2,0 -0.04,-0.16 0.39,-0.31 0.71,-0.31 0.71,-0.39 -0.39,-0.86 -0.63,-0.31 -1.29,-0.67 -1.41,-0.86 -0.12,-0.16 -0.39,-0.27 -0.59,-0.24 -0.2,0.04 -0.71,0.04 -1.14,0 -0.67,-0.04 -0.71,-0.12 -0.2,-0.43 0.31,-0.2 0.39,-0.39 0.12,-0.39 -0.47,0 -0.47,-0.67 0,-1.45 0.31,-0.47 1.76,-0.55 2.43,-0.12 0.24,0.16 0.74,0.24 1.18,0.16 0.43,-0.08 2.78,-0.27 5.21,-0.43 2.39,-0.12 4.39,-0.35 4.39,-0.55 0,-0.16 0.71,-0.39 1.53,-0.55 2.12,-0.35 5.72,-2.59 7.95,-4.94 1.72,-1.76 2,-1.92 3.76,-1.92 2.04,0 11.48,2.47 12.93,3.37 1.14,0.74 1.1,2.04 -0.12,4.43 -1.06,2.16 -4.82,6.94 -7.13,9.09 -1.33,1.29 -6.03,4.27 -6.7,4.27 -0.16,0 -0.78,0.27 -1.37,0.59 -3.29,1.72 -6.03,2.16 -13.17,2.16 -5.33,-0.04 -7.13,-0.16 -7.95,-0.63 z"
         id="path14" />
      <path
         d="m 359.23,135.77 c -0.12,-0.12 -6.43,-0.31 -14.07,-0.43 -9.17,-0.12 -13.99,-0.35 -14.26,-0.63 -0.27,-0.27 -0.16,-0.35 0.47,-0.2 0.59,0.12 0.78,0.04 0.63,-0.35 -0.12,-0.31 0.08,-0.67 0.43,-0.78 0.43,-0.16 0.55,-0.51 0.43,-0.98 -0.2,-0.55 -0.04,-0.74 0.43,-0.74 0.63,0 0.63,-0.08 -0.12,-0.67 l -0.82,-0.67 0.78,-0.71 c 0.47,-0.39 0.71,-0.71 0.51,-0.71 -0.16,0 -0.12,-0.24 0.08,-0.47 0.98,-1.25 0.82,-2.16 -0.51,-2.86 -0.74,-0.39 -1.33,-0.86 -1.33,-1.06 0,-0.16 -0.27,-0.31 -0.63,-0.31 -0.31,0 -0.47,-0.16 -0.35,-0.39 0.12,-0.2 0,-0.43 -0.27,-0.43 -0.27,-0.04 0.27,-0.24 1.25,-0.43 0.98,-0.24 6.54,-0.51 12.42,-0.63 5.84,-0.16 10.78,-0.39 10.93,-0.55 0.35,-0.39 -0.47,-4.23 -1.41,-6.35 -0.35,-0.9 -1.14,-2.31 -1.72,-3.13 -0.74,-1.14 -0.9,-1.65 -0.59,-1.84 0.31,-0.2 0.47,-1.1 0.39,-2.47 -0.04,-1.49 0.08,-2.19 0.39,-2.19 0.31,0 0.24,-0.24 -0.16,-0.71 -0.47,-0.51 -0.51,-0.86 -0.24,-1.14 0.27,-0.27 0.2,-0.55 -0.24,-0.9 -0.71,-0.59 -0.78,-1.57 -0.08,-1.57 0.31,0 0.35,-0.08 0.04,-0.31 -0.78,-0.47 -0.55,-2.35 0.35,-2.59 0.59,-0.16 0.71,-0.43 0.59,-1.18 -0.16,-0.71 -0.04,-1.02 0.31,-1.02 0.31,0 0.55,-0.16 0.55,-0.39 0,-0.55 2.04,-0.47 2.82,0.16 0.39,0.27 0.55,0.67 0.39,0.82 -0.16,0.16 0.2,0.24 0.78,0.12 0.59,-0.12 0.98,-0.04 0.86,0.12 -0.2,0.35 0.43,0.47 2.35,0.43 1.29,0 3.68,2.27 6.11,5.8 1.92,2.82 2.66,4.27 3.8,7.6 1.61,4.66 2.12,7.95 2.35,15.59 0.2,6.43 0.16,7.44 -0.43,8.35 l -0.63,0.98 h -6.23 c -3.41,0 -6.27,-0.08 -6.39,-0.2 z"
         id="path15" />
      <path
         d="m 380.86,126.17 c -0.71,-0.71 -0.78,-1.25 -0.71,-6.35 l 0.08,-5.6 0.2,5.52 c 0.16,3.8 0.39,5.72 0.78,6.15 0.47,0.59 2,0.67 12.73,0.78 l 12.19,0.08 -12.23,0.12 c -11.79,0.08 -12.3,0.04 -13.05,-0.71 z"
         id="path16" />
      <path
         d="m 407.62,120.29 c 0,-1.18 0.08,-1.68 0.16,-1.06 0.08,0.59 0.08,1.53 0,2.16 -0.08,0.59 -0.16,0.08 -0.16,-1.1 z"
         id="path17" />
    </g>
  </g>
</svg>