<?xml version="1.0" encoding="UTF-8" standalone="no"?>
<!-- Created with Inkscape (http://www.inkscape.org/) -->

<svg
   width="122.16282mm"
   height="31.999998mm"
   viewBox="0 0 461.71775 120.94488"
   version="1.1"
   id="svg1"
   xml:space="preserve"
   inkscape:version="1.4.3 (0d15f75042, 2025-12-25)"
   sodipodi:docname="dibujo.svg"
   xmlns:inkscape="http://www.inkscape.org/namespaces/inkscape"
   xmlns:sodipodi="http://sodipodi.sourceforge.net/DTD/sodipodi-0.dtd"
   xmlns="http://www.w3.org/2000/svg"
   xmlns:svg="http://www.w3.org/2000/svg"><sodipodi:namedview
     id="namedview1"
     pagecolor="#ffffff"
     bordercolor="#000000"
     borderopacity="0.25"
     inkscape:showpageshadow="2"
     inkscape:pageopacity="0.0"
     inkscape:pagecheckerboard="0"
     inkscape:deskcolor="#d1d1d1"
     inkscape:document-units="mm"
     inkscape:zoom="1.3203968"
     inkscape:cx="191.60906"
     inkscape:cy="87.852377"
     inkscape:window-width="1366"
     inkscape:window-height="732"
     inkscape:window-x="0"
     inkscape:window-y="0"
     inkscape:window-maximized="1"
     inkscape:current-layer="layer1" /><defs
     id="defs1" /><g
     inkscape:label="Capa 1"
     inkscape:groupmode="layer"
     id="layer1"
     transform="translate(-243.92549,-145.96962)"><path
       d="m 476.28901,145.96962 c 4.03161,0 8.08549,0.77703 10.73534,2.49164 l -2.45999,10.50563 c -3.54407,-0.78522 -6.25604,-1.23058 -8.32692,-1.23058 -6.77054,-0.001 -6.72483,4.75941 -6.72483,17.99459 h 16.4675 l -4.24726,10.50681 -12.22024,0.0774 v 49.47633 c -1.22706,0.14767 -3.9777,0.25901 -6.692,0.25901 -2.72486,0 -5.41455,-0.11254 -6.4963,-0.41137 v -49.25247 l -6.63223,-0.14885 -4.09725,-10.43063 10.72948,-0.0774 0.14884,-13.2633 c -0.14884,-4.69028 4.09842,-11.99288 9.91028,-14.67555 2.56077,-1.17315 6.22438,-1.82126 9.90558,-1.82126 m -159.06121,0.50513 c 33.49989,0 55.51906,26.93915 49.17514,60.21988 -6.34394,33.2819 -38.67653,60.21987 -72.17643,60.21987 -33.53739,0 -55.55422,-26.93797 -49.21264,-60.21987 6.38026,-33.28073 38.67653,-60.21988 72.21393,-60.21988 m -40.4263,112.12924 c -11.59205,-7.07291 -22.67313,-16.5132 -23.54978,-37.83739 0.54615,-17.42501 7.0354,-31.05866 18.08015,-41.84908 7.61905,-7.47255 16.11356,-13.88914 27.2673,-17.13319 v 4.41133 c -9.03949,1.27394 -17.67934,8.27184 -19.2826,17.49767 -2.15059,12.5027 4.62933,23.00013 16.76753,28.17793 5.06764,2.44007 16.25771,6.44942 18.5923,11.33658 1.34778,2.98972 0.65513,5.35711 -2.22442,7.10922 -2.2045,1.03487 -4.69027,1.46967 -7.2405,1.46967 -4.36562,0 -8.91643,-1.27629 -12.55191,-3.00261 -3.12216,-1.52709 -4.69144,-3.18427 -7.69406,-3.18427 a 9.2469268,9.2469268 0 0 0 -0.47113,0.013 c -2.77055,0.25432 -4.48399,5.68645 -4.73831,8.02104 -0.0375,1.27511 -0.218,4.55431 1.20245,5.24929 3.09871,2.00526 6.19742,3.75386 9.25864,4.95631 2.84322,0.8743 5.72279,1.53296 8.63984,1.82244 0.2555,0.0727 0.47465,0.25431 0.43832,0.83913 -0.11019,3.93551 -0.25548,7.91087 -0.36565,11.84521 0.075,1.89743 0.11019,3.17489 2.36974,3.24521 28.43459,-2.98854 54.60609,-26.42817 60.03822,-54.89791 4.66683,-24.42408 -7.36238,-45.16462 -28.10643,-52.42035 20.04906,9.18833 26.83015,26.68483 24.75339,45.27478 -0.94813,6.63342 -2.91588,12.28588 -5.46729,17.38868 -3.7562,9.14965 -10.90058,16.22021 -18.55597,22.96613 -5.9056,4.26366 -11.95771,8.16284 -18.84661,10.38843 -0.1676,0.041 -0.3223,0.0832 -0.47348,0.0832 a 0.64458932,0.64458932 0 0 1 -0.32699,-0.0832 c 0.10902,-1.97009 0.18167,-3.90035 0.29065,-5.86927 3.20772,-0.50981 6.30526,-1.97011 9.40516,-3.60735 2.18574,-1.16848 4.2285,-2.80807 6.08726,-4.92233 2.22325,-2.11542 3.68236,-5.46846 4.88481,-9.33366 1.01963,-4.73714 0.61881,-9.40279 -1.13096,-13.99578 -2.40491,-4.6305 -6.15993,-8.45819 -11.40805,-11.40924 -6.08844,-3.28037 -12.17688,-6.59825 -18.26415,-9.87862 -2.11308,-1.31378 -4.04567,-2.84557 -5.21297,-5.17663 -1.34779,-3.13388 0,-5.13914 2.84322,-6.48692 a 11.559245,11.559245 0 0 1 4.86841,-1.04306 c 0.79225,0 1.58804,0.0727 2.38733,0.20392 2.00409,0.47348 11.66472,3.13505 11.55338,3.53587 0.31877,0.16876 0.70553,0.25314 1.13799,0.25314 2.83385,0 7.59326,-3.6343 7.46669,-10.96973 -4.4125,-3.75385 -9.87979,-5.39463 -15.67523,-6.56192 0.25548,-3.68237 0.47348,-7.36472 0.73013,-11.04475 -0.61998,-1.56928 -0.69381,-1.67828 -1.85993,-2.37091 -29.34757,1.93376 -56.7602,25.84802 -62.33647,55.08074 -4.55784,23.87676 6.81506,44.21648 26.71998,51.90937 M 621.66851,157.9228 v 17.80707 c 5.61262,0 11.15842,-0.0328 16.66204,-0.0328 2.75182,0 5.49308,0.008 8.22496,0.0328 8.71719,0.0774 12.81913,2.90652 15.64945,9.46609 2.08614,4.84028 13.41216,33.23033 14.90174,34.86994 l 14.67789,-44.3372 h 13.85866 l -20.86242,57.67317 c -3.72573,10.13762 -7.15377,19.22633 -13.11445,25.70739 -4.23554,4.61291 -10.57948,6.96625 -17.57269,6.96625 -4.07849,0 -8.37614,-0.80046 -12.60465,-2.42013 l 2.98034,-10.72949 c 2.98036,0.66217 6.19627,2.08729 9.59502,2.08729 3.48546,0 7.16079,-1.49895 10.9709,-6.85726 1.04307,-1.4134 5.88686,-9.98293 5.44034,-12.14171 l -21.75782,-49.62869 -27.04696,-0.0715 v 28.98308 c 0,4.69613 -0.29769,9.46726 3.72689,10.65682 a 8.812122,8.812122 0 0 0 2.63813,0.402 c 3.40225,0 6.34744,-1.90799 8.91173,-2.86198 l 4.32111,9.01721 c -4.54378,2.94871 -10.60175,4.73481 -16.27178,4.73481 -6.51153,0 -12.50855,-2.35686 -15.09863,-8.01401 -0.66921,-1.4134 -1.11574,-3.35068 -1.41341,-6.7799 l -0.15119,-35.84034 -10.65447,-0.29652 -0.0739,-10.65682 10.72832,-0.15001 v -13.33713 c 2.15528,-1.11691 10.42711,-3.57689 13.3348,-4.24844 m -45.11187,16.20602 c 5.71224,0 10.22788,1.69469 15.82877,3.91442 v 11.47369 c -1.56577,-0.67038 -2.97917,-1.63609 -4.91762,-2.53383 -2.82917,-1.20127 -6.13884,-1.83766 -9.39812,-1.83766 -3.012,0 -5.98179,0.54379 -8.48398,1.68765 -13.48831,6.18337 -14.45755,30.99655 -1.11923,37.55495 2.95105,1.4638 5.70754,2.03338 8.34333,2.03338 5.01607,0 9.595,-2.06619 14.23487,-3.97183 0.89423,0.89187 3.50071,7.52646 3.87575,9.01604 -3.77379,3.41983 -11.26625,5.85052 -19.31659,5.85052 -14.05205,0 -29.78823,-7.41512 -30.30976,-29.91832 -0.29769,-15.05174 8.42185,-28.83541 23.47126,-32.33494 2.90299,-0.64928 5.44736,-0.93407 7.79132,-0.93407 m -64.06749,0.11137 c 0.12896,0 0.26018,0 0.39026,0.003 20.26824,0.14884 25.55856,17.36172 25.55856,34.94495 l -38.598,0.075 c 0.22267,8.34216 4.69495,13.93368 11.10334,16.24364 2.47053,0.85556 4.76058,1.19191 6.89124,1.19191 6.22673,0 11.09397,-2.87721 15.09042,-4.09841 l 3.72691,9.38639 c -3.50306,1.19542 -5.73803,2.98035 -10.43298,4.10076 -3.49016,0.82156 -6.87015,1.22237 -10.09544,1.22237 -16.39132,0 -28.66078,-10.3978 -29.84331,-29.01589 -1.03838,-17.46836 6.67442,-34.05307 26.209,-34.05307 m -12.79802,25.40971 h 24.96201 c -0.0739,-7.97297 -4.17225,-14.97556 -12.22142,-14.97556 -8.3445,0.0727 -12.07022,6.85609 -12.74059,14.97556 m -81.57221,-25.38978 c 2.81862,0 5.64544,0.40784 8.2531,1.24699 15.05175,4.69612 17.43555,20.19322 17.43555,33.68038 h -38.523 c 0.19338,11.69285 8.28004,17.39219 18.14812,17.39219 1.51537,0 3.0741,-0.13478 4.65159,-0.40317 4.54611,-0.81921 6.70725,-2.53381 10.20912,-3.5007 l 3.72456,8.78985 c -4.09725,3.72573 -13.03946,5.66301 -20.04439,5.73685 -0.17111,0.003 -0.33753,0.003 -0.50864,0.003 -36.0806,0 -37.02169,-47.22849 -16.25654,-59.68664 3.58157,-2.13535 8.23434,-3.2581 12.91053,-3.2581 m 12.12766,25.38978 c -0.368,-8.17925 -4.2367,-14.9779 -12.32805,-14.9779 l -0.26605,0.003 c -8.56953,0.14767 -11.62252,6.77873 -12.59293,14.82907 z"
         id="path2"
         style="stroke-width:1.17198" /></g></svg>