<?xml version="1.0" encoding="UTF-8" standalone="no"?>
<svg
   width="90.066772mm"
   height="27.900007mm"
   viewBox="0 0 90.066772 27.900007"
   version="1.1"
   id="svg1"
   inkscape:version="1.4.3 (0d15f75042, 2025-12-25)"
   sodipodi:docname="logo-nequi.svg"
   xmlns:inkscape="http://www.inkscape.org/namespaces/inkscape"
   xmlns:sodipodi="http://sodipodi.sourceforge.net/DTD/sodipodi-0.dtd"
   xmlns="http://www.w3.org/2000/svg"
   xmlns:svg="http://www.w3.org/2000/svg">
  <sodipodi:namedview
     id="namedview1"
     pagecolor="#ffffff"
     bordercolor="#000000"
     borderopacity="0.25"
     inkscape:showpageshadow="2"
     inkscape:pageopacity="0.0"
     inkscape:pagecheckerboard="0"
     inkscape:deskcolor="#d1d1d1"
     inkscape:document-units="mm"
     inkscape:zoom="0.66016473"
     inkscape:cx="-103.00459"
     inkscape:cy="12.118188"
     inkscape:window-width="1366"
     inkscape:window-height="732"
     inkscape:window-x="0"
     inkscape:window-y="0"
     inkscape:window-maximized="1"
     inkscape:current-layer="layer1" />
  <defs
     id="defs1" />
  <g
     inkscape:label="Capa 1"
     inkscape:groupmode="layer"
     id="layer1"
     transform="translate(-81.491684,-141.28734)">
    <g
       id="g41"
       transform="matrix(0.51220868,0,0,0.51220868,8.6504879,136.49307)">
      <path
         style="fill:#c80a80"
         d="m 151.15,9.38 h -7.38 c -0.86,0 -1.56,0.7 -1.56,1.56 v 6.28 c 0,0.86 0.7,1.56 1.56,1.56 h 7.38 c 0.86,0 1.56,-0.7 1.56,-1.56 v -6.28 c 0,-0.87 -0.7,-1.56 -1.56,-1.56 z"
         id="path22" />
      <path
         style="fill:#1a0e1e"
         d="m 196.29,9.38 h -6.37 c -0.86,0 -1.56,0.71 -1.56,1.56 V 36.4 c 0,0.53 -0.68,0.71 -0.92,0.24 L 172.63,10.05 c -0.24,-0.43 -0.68,-0.68 -1.2,-0.68 h -10.6 c -0.86,0 -1.56,0.71 -1.56,1.56 v 40.68 c 0,0.86 0.71,1.56 1.56,1.56 h 6.37 c 0.86,0 1.56,-0.71 1.56,-1.56 V 25.39 c 0,-0.53 0.68,-0.71 0.92,-0.24 l 15.22,27.38 c 0.24,0.43 0.68,0.68 1.2,0.68 h 10.13 c 0.86,0 1.56,-0.71 1.56,-1.56 V 10.92 c 0,-0.86 -0.71,-1.56 -1.56,-1.56 h 0.06 z"
         id="path23" />
      <path
         style="fill:#1a0e1e"
         d="m 211.87,32.96 c 0.92,-4.12 3.33,-5.94 6.95,-5.94 3.23,0 6.01,1.88 6.41,5.94 h -13.34 z m 22.73,4.34 c 0,-11.46 -7.46,-17.16 -15.65,-17.16 -10.65,0 -16.72,7.38 -16.72,17.34 0,11.33 7.63,16.72 16.48,16.72 8.85,0 14.02,-4.57 15.41,-10.5 0.19,-0.77 -0.24,-1.45 -1.39,-1.45 h -5.02 c -0.56,0 -1.07,0.3 -1.32,0.86 -1.26,2.74 -3.27,4.19 -7.14,4.19 -4.38,0 -7.33,-2.74 -7.76,-8.32 h 21.53 c 0.92,0 1.56,-0.68 1.56,-1.69 h 0.02 z"
         id="path24" />
      <path
         style="fill:#1a0e1e"
         d="m 316.49,20.95 h -6.39 c -0.86,0 -1.56,0.7 -1.56,1.56 v 29.13 c 0,0.86 0.7,1.56 1.56,1.56 h 6.39 c 0.86,0 1.56,-0.7 1.56,-1.56 V 22.51 c 0,-0.86 -0.69,-1.56 -1.56,-1.56 z"
         id="path25" />
      <path
         style="fill:#1a0e1e"
         d="m 254.47,46.94 c -4.19,0 -7.14,-3.08 -7.14,-9.7 0,-6.61 2.95,-10.07 7.14,-10.07 4.19,0 7.14,3.19 7.14,10.07 0,6.88 -2.95,9.7 -7.14,9.7 z m 14.5,-25.99 h -6.37 c -0.86,0 -1.56,0.71 -1.56,1.56 v 1.58 c -1.9,-2.24 -5.04,-3.78 -9.15,-3.78 -9.21,0 -14.07,8.32 -14.07,17.16 0,7.7 4,16.35 13.89,16.35 3.53,0 7.29,-1.69 9.34,-4.08 v 12.53 c 0,0.86 0.71,1.56 1.56,1.56 h 6.37 c 0.86,0 1.56,-0.71 1.56,-1.56 v -39.7 c 0,-0.86 -0.71,-1.56 -1.56,-1.56 v -0.06 z"
         id="path26" />
      <path
         style="fill:#1a0e1e"
         d="m 302.91,20.95 h -6.37 c -0.86,0 -1.56,0.71 -1.56,1.56 v 16.48 c 0,5.32 -2.37,6.86 -5.39,6.86 -3.03,0 -5.39,-1.56 -5.39,-6.86 V 22.51 c 0,-0.86 -0.71,-1.56 -1.56,-1.56 h -6.37 c -0.86,0 -1.56,0.71 -1.56,1.56 v 17.16 c 0,10.2 5.64,14.32 14.9,14.32 9.26,0 14.9,-4.13 14.9,-14.32 V 22.51 c 0,-0.86 -0.71,-1.56 -1.56,-1.56 h -0.06 z"
         id="path27" />
    </g>
  </g>
</svg>