<?xml version="1.0" encoding="UTF-8" standalone="no"?>
<!-- Created with Inkscape (http://www.inkscape.org/) -->

<svg
   width="67.959938mm"
   height="32mm"
   viewBox="0 0 67.959938 32"
   version="1.1"
   id="svg1"
   inkscape:version="1.4.3 (0d15f75042, 2025-12-25)"
   sodipodi:docname="logo-daviplata.svg"
   xmlns:inkscape="http://www.inkscape.org/namespaces/inkscape"
   xmlns:sodipodi="http://sodipodi.sourceforge.net/DTD/sodipodi-0.dtd"
   xmlns="http://www.w3.org/2000/svg"
   xmlns:svg="http://www.w3.org/2000/svg">
  <sodipodi:namedview
     id="namedview1"
     pagecolor="#ffffff"
     bordercolor="#000000"
     borderopacity="0.25"
     inkscape:showpageshadow="2"
     inkscape:pageopacity="0.0"
     inkscape:pagecheckerboard="0"
     inkscape:deskcolor="#d1d1d1"
     inkscape:document-units="mm"
     inkscape:zoom="0.46680696"
     inkscape:cx="52.484222"
     inkscape:cy="25.706558"
     inkscape:window-width="1366"
     inkscape:window-height="732"
     inkscape:window-x="0"
     inkscape:window-y="0"
     inkscape:window-maximized="1"
     inkscape:current-layer="layer1" />
  <defs
     id="defs1" />
  <g
     inkscape:label="Capa 1"
     inkscape:groupmode="layer"
     id="layer1"
     transform="translate(-91.016667,-141.81666)">
    <g
       id="g40"
       transform="matrix(0.63198415,0,0,0.63198415,83.669372,68.741907)">
      <path
         style="fill:#e5242a"
         d="m 36.64,135.1 c 0.88,0 1.54,0.47 2.16,1.01 1.24,1.09 2.16,2.46 3.02,3.88 1.25,2.04 2.29,4.19 3.2,6.41 0.12,0.28 0.21,0.58 0.26,0.88 0.12,0.73 -0.11,1.31 -0.81,1.55 -0.74,0.25 -1.09,-0.27 -1.33,-0.88 -1.07,-2.73 -2.31,-5.36 -3.89,-7.81 -0.5,-0.77 -1.04,-1.5 -1.77,-2.07 -0.55,-0.43 -1.07,-0.44 -1.63,-0.02 -0.77,0.57 -1.32,1.33 -1.84,2.13 -1.54,2.37 -2.75,4.91 -3.79,7.55 -0.27,0.68 -0.53,1.39 -1.45,1.11 -0.72,-0.23 -1.03,-1.1 -0.66,-2.02 1.36,-3.45 2.98,-6.75 5.32,-9.61 0.85,-1.06 1.8,-1.99 3.21,-2.11 z m -22.71,8.46 c 0,-0.99 -0.01,-1.99 0,-2.98 0.01,-0.68 0.08,-1.37 0.95,-1.38 0.87,0 0.95,0.66 0.95,1.36 0,1.8 0.01,3.6 -0.01,5.4 0,0.49 0.11,0.71 0.61,0.78 2.13,0.3 4.21,0.18 6.17,-0.82 2.24,-1.15 3.61,-4.51 0.75,-6.95 -1.61,-1.38 -3.52,-1.71 -5.48,-1.88 -1.64,-0.14 -3.26,0.05 -4.84,0.52 -0.56,0.16 -1.11,0.26 -1.34,-0.45 -0.22,-0.67 0.15,-1.15 0.73,-1.4 1.25,-0.55 2.59,-0.64 3.93,-0.67 2.43,-0.06 4.81,0.24 7.03,1.31 2.02,0.97 3.49,2.47 3.86,4.87 0.41,2.65 -1.06,5.3 -3.63,6.5 -2.61,1.22 -5.34,1.35 -8.12,0.86 -1.1,-0.2 -1.48,-0.74 -1.56,-1.92 0,-0.06 0,-0.13 0,-0.19 z"
         id="path1" />
      <path
         style="fill:#e5242a"
         d="m 52.04,148.9 c -0.73,-0.02 -1.3,-0.39 -1.83,-0.87 -0.98,-0.88 -1.72,-1.97 -2.41,-3.1 -1.43,-2.37 -2.58,-4.88 -3.55,-7.48 -0.16,-0.44 -0.33,-0.88 -0.2,-1.36 0.14,-0.5 0.39,-0.91 0.95,-0.97 0.55,-0.06 0.8,0.31 0.97,0.78 0.6,1.65 1.26,3.28 2.02,4.86 0.75,1.58 1.53,3.16 2.63,4.51 1.06,1.3 1.77,1.33 2.81,0.03 1.68,-2.09 2.73,-4.57 3.78,-7.03 0.34,-0.79 0.61,-1.61 0.94,-2.41 0.18,-0.45 0.46,-0.82 1,-0.73 0.54,0.09 0.81,0.48 0.91,1.01 0.06,0.34 0.04,0.68 -0.08,1.01 -1.25,3.36 -2.72,6.61 -4.82,9.5 -0.45,0.62 -0.96,1.18 -1.57,1.65 -0.45,0.35 -0.95,0.61 -1.55,0.6 z"
         id="path2" />
      <path
         style="fill:#e5242a"
         d="m 64.56,142.12 c 0,1.77 0.01,3.53 0,5.3 0,1.02 -0.37,1.49 -1.08,1.47 -0.69,-0.02 -1.08,-0.54 -1.08,-1.51 0,-3.56 0,-7.13 0,-10.69 0,-0.98 0.39,-1.51 1.07,-1.53 0.7,-0.02 1.1,0.52 1.11,1.57 -0.01,1.8 -0.02,3.6 -0.02,5.39 z"
         id="path3" />
      <path
         style="fill:#e5242a"
         d="m 69.99,144.3 c 0,0.25 0.04,0.49 0.08,0.7 0.31,1.19 1.35,2.01 2.58,2.01 1.82,0 2.87,-1.48 2.87,-3.65 0,-1.89 -1,-3.51 -2.81,-3.51 -1.17,0 -2.26,0.84 -2.6,2.13 -0.06,0.21 -0.12,0.47 -0.12,0.7 z m -1.7,-2.52 c 0,-1.21 -0.04,-2.19 -0.08,-3.08 h 1.54 l 0.08,1.62 h 0.04 c 0.7,-1.15 1.82,-1.84 3.36,-1.84 2.28,0 4,1.93 4,4.8 0,3.4 -2.07,5.08 -4.3,5.08 -1.25,0 -2.34,-0.55 -2.91,-1.48 h -0.04 v 5.13 h -1.7 v -10.23 z"
         id="path4" />
      <polygon
         style="fill:#e5242a"
         points="79.39,134.28 79.39,148.15 81.11,148.15 81.11,134.28 "
         id="polygon4" />
      <path
         style="fill:#e5242a"
         d="m 88.98,143.32 c -1.87,-0.04 -4,0.29 -4,2.13 0,1.11 0.74,1.64 1.62,1.64 1.23,0 2.01,-0.78 2.28,-1.58 0.06,-0.18 0.1,-0.37 0.1,-0.55 z m 0.25,4.83 -0.14,-1.19 h -0.06 c -0.53,0.74 -1.54,1.41 -2.89,1.41 -1.91,0 -2.89,-1.35 -2.89,-2.71 0,-2.28 2.03,-3.53 5.68,-3.51 v -0.2 c 0,-0.78 -0.21,-2.19 -2.15,-2.19 -0.88,0 -1.8,0.27 -2.46,0.7 l -0.39,-1.13 c 0.78,-0.51 1.91,-0.84 3.1,-0.84 2.89,0 3.59,1.97 3.59,3.87 v 3.53 c 0,0.82 0.04,1.62 0.16,2.26 z"
         id="path5" />
      <path
         style="fill:#e5242a"
         d="m 95.4,135.98 v 2.71 h 2.46 V 140 H 95.4 v 5.1 c 0,1.17 0.33,1.84 1.29,1.84 0.45,0 0.78,-0.06 1,-0.12 l 0.08,1.29 c -0.33,0.14 -0.86,0.23 -1.52,0.23 -0.8,0 -1.44,-0.25 -1.85,-0.72 -0.49,-0.51 -0.66,-1.35 -0.66,-2.46 V 140 h -1.46 v -1.31 h 1.46 v -2.26 z"
         id="path6" />
      <path
         style="fill:#e5242a"
         d="m 104.77,143.32 c -1.87,-0.04 -4,0.29 -4,2.13 0,1.11 0.74,1.64 1.62,1.64 1.23,0 2.01,-0.78 2.28,-1.58 0.06,-0.18 0.1,-0.37 0.1,-0.55 z m 0.26,4.83 -0.14,-1.19 h -0.06 c -0.53,0.74 -1.54,1.41 -2.89,1.41 -1.91,0 -2.89,-1.35 -2.89,-2.71 0,-2.28 2.03,-3.53 5.68,-3.51 v -0.2 c 0,-0.78 -0.21,-2.19 -2.15,-2.19 -0.88,0 -1.8,0.27 -2.46,0.7 l -0.39,-1.13 c 0.78,-0.51 1.91,-0.84 3.1,-0.84 2.89,0 3.59,1.97 3.59,3.87 v 3.53 c 0,0.82 0.04,1.62 0.16,2.26 z"
         id="path7" />
      <path
         style="fill:#e5242a"
         d="m 61.85,133.02 c -0.23,0.25 -0.63,0.27 -0.88,0.04 -0.25,-0.23 -0.27,-0.63 -0.04,-0.88 0.01,-0.01 3.75,-4.1 10.54,-8.47 1.73,-1.11 3.59,-2.24 5.52,-3.31 1.93,-1.07 3.93,-2.07 5.95,-2.92 l 0.81,-0.35 c 1.73,-0.74 3.41,-1.47 5,-1.5 2.25,-0.05 4.72,0.66 6.89,1.53 2.14,0.86 3.99,1.88 5.03,2.48 v 0 c 0.13,0.08 0.27,0.17 0.4,0.28 0,-0.01 -0.01,-0.03 -0.01,-0.04 -0.03,-0.16 -0.06,-0.28 -0.08,-0.39 -0.01,-0.08 -0.01,-0.17 0,-0.27 0.03,-0.26 0.16,-0.7 0.48,-1.09 0.32,-0.38 0.82,-0.73 1.59,-0.83 0.29,-0.04 0.62,-0.04 0.99,0 0.89,0.1 1.78,0.06 2.62,0.02 0.88,-0.04 1.71,-0.08 2.48,0.03 l 0.05,0.01 c 0.54,0.07 2.31,0.31 2.02,2.46 v 0.02 c -0.07,0.41 -0.24,1.29 -0.44,2.27 -0.26,1.34 -0.57,2.87 -0.67,3.55 0,0.01 0,0.02 0,0.03 0,0.01 0.01,0.02 0.01,0.02 0.24,0.18 0.63,0.44 1.09,0.76 2.7,1.84 7.93,5.41 7.96,8.78 0,0.21 -0.01,0.4 -0.03,0.6 -0.2,1.61 -1.23,2.62 -2.63,3.23 -1.29,0.56 -2.89,0.76 -4.4,0.77 -0.67,0 -1.32,-0.03 -1.92,-0.09 0.09,1.33 0.46,4.23 3.55,8.34 l 0.01,0.01 c 1.65,2.3 2.42,4.57 2.33,6.77 -0.09,2.23 -1.06,4.37 -2.88,6.37 l -0.03,0.03 c -1.79,1.71 -3.86,2.96 -6.35,3.66 -2.47,0.7 -5.35,0.85 -8.8,0.39 -0.23,-0.03 -0.47,-0.05 -0.7,-0.06 -0.22,-0.01 -0.45,0 -0.66,0.01 -0.35,0.06 -0.76,0.15 -1.22,0.25 -2.55,0.56 -6.71,1.48 -13.68,-0.36 -0.39,0.07 -1.06,0.19 -1.88,0.28 -0.94,0.11 -2.13,0.2 -3.43,0.2 -1.11,-0.01 -2.34,-0.18 -3.6,-0.5 -2.37,-0.62 -4.85,-1.8 -6.73,-3.56 -1.92,-1.79 -3.24,-4.18 -3.21,-7.16 0.01,-0.86 0.12,-1.77 0.37,-2.73 0.09,-0.33 0.42,-0.53 0.76,-0.45 0.33,0.09 0.53,0.42 0.45,0.76 -0.22,0.86 -0.33,1.66 -0.33,2.42 -0.02,2.59 1.13,4.67 2.82,6.24 1.73,1.61 4.01,2.7 6.2,3.27 1.16,0.3 2.29,0.46 3.3,0.46 1.23,0.01 2.36,-0.08 3.28,-0.19 0.93,-0.11 1.61,-0.23 1.94,-0.3 l 0.14,-0.03 0.13,0.04 c 6.77,1.81 10.78,0.93 13.23,0.39 0.49,-0.11 0.93,-0.2 1.32,-0.27 h 0.04 c 0.28,-0.03 0.56,-0.03 0.84,-0.02 0.28,0.01 0.55,0.04 0.82,0.07 3.27,0.44 5.99,0.29 8.3,-0.36 2.28,-0.64 4.18,-1.79 5.83,-3.35 1.6,-1.78 2.46,-3.64 2.54,-5.56 0.08,-1.92 -0.61,-3.92 -2.1,-6 v 0 c -3.54,-4.71 -3.73,-7.99 -3.81,-9.28 -0.01,-0.12 -0.01,-0.23 -0.02,-0.28 -0.01,-0.1 0,-0.2 0.03,-0.29 v 0 c 0.04,-0.14 0.13,-0.27 0.24,-0.36 0.11,-0.09 0.25,-0.15 0.4,-0.16 0.08,-0.01 0.16,0 0.23,0.01 0.68,0.08 1.47,0.14 2.28,0.13 1.36,-0.01 2.79,-0.18 3.91,-0.67 1.01,-0.44 1.75,-1.15 1.89,-2.24 0.02,-0.14 0.03,-0.28 0.02,-0.43 -0.02,-2.71 -4.9,-6.04 -7.42,-7.76 -0.47,-0.32 -0.86,-0.59 -1.16,-0.81 l -0.02,-0.01 c -0.18,-0.15 -0.31,-0.34 -0.39,-0.54 -0.08,-0.21 -0.1,-0.43 -0.07,-0.66 0.12,-0.78 0.42,-2.27 0.68,-3.59 0.2,-1 0.37,-1.89 0.43,-2.24 0.11,-0.9 -0.71,-1.01 -0.96,-1.05 -0.06,-0.01 0,0 -0.06,-0.01 -0.67,-0.1 -1.43,-0.06 -2.25,-0.02 -0.9,0.04 -1.84,0.09 -2.82,-0.03 -0.27,-0.03 -0.49,-0.03 -0.68,0 -0.4,0.05 -0.65,0.22 -0.8,0.4 -0.14,0.17 -0.19,0.34 -0.2,0.43 0.01,0.05 0.03,0.15 0.06,0.26 0.14,0.63 0.35,1.61 -0.12,1.96 -0.53,0.39 -1.08,-0.05 -1.62,-0.49 -0.18,-0.15 -0.37,-0.29 -0.48,-0.36 v 0 c -1.01,-0.58 -2.8,-1.57 -4.87,-2.4 -2.04,-0.82 -4.35,-1.48 -6.4,-1.44 -1.34,0.03 -2.92,0.71 -4.53,1.4 -0.16,0.07 -0.32,0.14 -0.82,0.35 -1.96,0.83 -3.93,1.81 -5.83,2.86 -1.9,1.05 -3.74,2.17 -5.45,3.27 -6.68,4.26 -10.31,8.24 -10.32,8.25 z m 39.51,-12.7 c -0.02,0.18 -0.1,0.36 0.06,0.24 0.09,-0.06 0.03,-0.14 -0.06,-0.24 z m 0.85,-1 v 0 c 0,0 0,-0.01 0,0 z m 6.98,-1.97 c 0,0 -0.01,0 0,0 z"
         id="path8" />
    </g>
  </g>
</svg>